<svg width="136" height="812" viewBox="0 0 136 812" fill="none" xmlns="http://www.w3.org/2000/svg">
<rect x="0.666626" width="135" height="135" fill="#FF356B"/>
<rect x="0.666626" width="67.6667" height="67.6667" fill="#FFAC30"/>
<rect x="0.666626" y="67.6666" width="67.6667" height="67.6667" fill="#FFAC30"/>
<rect x="68.1666" y="67.5" width="67.5" height="67.5" fill="#3A4276"/>
<path d="M69.5 120C98.3223 120 121 96.1102 121 67.5C121 38.8898 98.3223 15 69.5 15C40.6777 15 18 38.8898 18 67.5C18 96.1102 40.6777 120 69.5 120Z" fill="#58D8F4" stroke="white" stroke-width="30"/>
<rect x="3" y="270" width="133" height="136" fill="#FF356B"/>
<rect x="0.666626" y="338.333" width="67.6667" height="67.6667" fill="#FFAC30"/>
<circle cx="69.3" cy="338.3" r="51.3" fill="#58D8F4" stroke="white" stroke-width="30"/>
<path d="M68 270H136V407H68V270Z" fill="#3A4276"/>
<rect x="0.666626" y="135" width="135" height="135.833" fill="white"/>
<path d="M0.666626 135H68.3333V202.667L34.5 168.833L0.666626 135Z" fill="#FFAC30"/>
<path d="M68.3333 202.5L0.66659 202.5L0.66659 134.833L34.4999 168.667L68.3333 202.5Z" fill="white"/>
<path d="M0.666626 202.5H68.3333L33.1466 237.687L0.666626 270.167V202.5Z" fill="#FF356B"/>
<path d="M68.3333 270.667H0.666594L34.4999 236.833L68.3333 203L68.3333 270.667Z" fill="white"/>
<path d="M101.917 169.167L135.667 135V203.333H68.1666L101.917 169.167Z" fill="#58D8F4"/>
<rect x="0.666626" y="405.833" width="135" height="135.833" fill="white"/>
<path d="M101.917 507.5L135.667 473.333V541.667H68.1666L101.917 507.5Z" fill="#FF356B"/>
<path d="M68.1667 472.392L0.666624 541.667L0.666624 405.833L135.667 405.833L68.1667 472.392Z" fill="#FFAC30"/>
<path d="M0.666626 541.667H135.667V676.667H0.666626V541.667Z" fill="white"/>
<path d="M68.3334 607.647L0.666626 676.667L0.666683 541.333H136L68.3334 607.647Z" fill="#58D8F4"/>
<path d="M0.666683 541.333L68.3333 541.333V609L0.666683 541.333Z" fill="#3A4276"/>
<path d="M0.666626 608.667H68.3333V676.333L0.666626 608.667Z" fill="#3A4276"/>
<path d="M135.667 676.667C117.72 676.667 100.509 669.538 87.8191 656.848C75.1291 644.158 67.9999 626.946 67.9999 609C67.9999 591.054 75.1291 573.842 87.819 561.152C100.509 548.463 117.72 541.333 135.667 541.333L135.667 676.667Z" fill="#58D8F4"/>
<path d="M3 676H136V812H3V676Z" fill="white"/>
<path d="M136 810C118.23 810 100.522 802.941 87.9572 790.376C75.3922 777.811 68.3333 760.77 68.3333 743C68.3333 725.231 75.3922 708.189 87.9571 695.624C100.522 683.059 118.23 676 136 676V810Z" fill="#FF356B"/>
<path d="M1.5 676C19.1369 676 36.0514 683.112 48.5226 695.77C60.9938 708.429 68 725.598 68 743.5C68 761.402 60.9938 778.571 48.5226 791.23C36.0514 803.888 19.1369 811 1.50001 811L1.50001 784.032C12.0905 784.032 22.2471 779.761 29.7357 772.16C37.2243 764.559 41.4313 754.25 41.4313 743.5C41.4313 732.75 37.2243 722.441 29.7357 714.84C22.2471 707.238 12.0904 702.968 1.5 702.968V676Z" fill="#58D8F4"/>
<path d="M135.667 270.833H68.1666L68.1666 202.5L101.917 236.667L135.667 270.833Z" fill="#3A4276"/>
<path d="M101.667 340C101.667 344.487 100.783 348.93 99.0658 353.075C97.3488 357.22 94.8321 360.987 91.6594 364.159C88.4867 367.332 84.7202 369.849 80.5749 371.566C76.4296 373.283 71.9867 374.167 67.4999 374.167C63.0131 374.167 58.5702 373.283 54.4249 371.566C50.2796 369.849 46.5131 367.332 43.3404 364.159C40.1678 360.987 37.6511 357.22 35.934 353.075C34.217 348.93 33.3333 344.487 33.3333 340L67.4999 340H101.667Z" fill="#FF356B"/>
</svg>
